# xmcd CD database file
#
# Track frame offsets:
#	150
#	15169
#	34150
#	46219
#	60909
#	75730
#	89919
#	106877
#	122042
#	135889
#	156873
#	173190
#	196902
#	213586
#	242372
#	256158
#	264206
#	277018
#	288594
#	307354
#	327537
#	348920
#
# Disc length: 4798 seconds
#
# Revision: 0
# Processed by: cddbd v1.5.2PL0 Copyright (c) Steve Scherf et al.
# Submitted via: CDex 1.51
#
DISCID=3612bc16
DTITLE=Count Basie - 4 Originals CD 2
DYEAR=1900
DGENRE=Jazz
TTITLE0=Jumpin' At The Woodside - (Sing Along With Basie)
TTITLE1=Goin' To Chicago Blues
TTITLE2=Tickle Toe
TTITLE3=Let Me See
TTITLE4=Every Tub
TTITLE5=Shorty George
TTITLE6=Rusty Dusty Blues
TTITLE7=The King
TTITLE8=Swinging The Blues
TTITLE9=Li'L' Darlin'
TTITLE10=Jumpin' At The Woodside - (Basie In London)
TTITLE11=Shiny Stockings
TTITLE12=How High The Moon
TTITLE13=Nails
TTITLE14=Flute Juice
TTITLE15=One o' Clock Jump
TTITLE16=Well Alright, Okay, You Win
TTITLE17=Roll'Em Pete
TTITLE18=The Comeback
TTITLE19=Blues Backstage
TTITLE20=Corner Pocket
TTITLE21=Blee Blop Blues
EXTD=
EXTT0=
EXTT1=
EXTT2=
EXTT3=
EXTT4=
EXTT5=
EXTT6=
EXTT7=
EXTT8=
EXTT9=
EXTT10=
EXTT11=
EXTT12=
EXTT13=
EXTT14=
EXTT15=
EXTT16=
EXTT17=
EXTT18=
EXTT19=
EXTT20=
EXTT21=
PLAYORDER=
